<?xml version="1.0" standalone="no"?>
<!DOCTYPE svg PUBLIC "-//W3C//DTD SVG 1.1//EN" "http://www.w3.org/Graphics/SVG/1.1/DTD/svg11.dtd" >
<svg xmlns="http://www.w3.org/2000/svg">
<metadata>
Created by FontForge 20120731 at Fri Jul 22 09:25:56 2016
 By admin
</metadata>
<defs>
<font id="iconfont" horiz-adv-x="1024" >
  <font-face 
    font-family="iconfont"
    font-weight="500"
    font-stretch="normal"
    units-per-em="1024"
    panose-1="2 0 6 3 0 0 0 0 0 0"
    ascent="896"
    descent="-128"
    x-height="792"
    bbox="-10 -132 1440.79 900.662"
    underline-thickness="50"
    underline-position="-100"
    unicode-range="U+0078-E642"
  />
<missing-glyph horiz-adv-x="374" 
d="M34 0v682h272v-682h-272zM68 34h204v614h-204v-614z" />
    <glyph glyph-name=".notdef" horiz-adv-x="374" 
d="M34 0v682h272v-682h-272zM68 34h204v614h-204v-614z" />
    <glyph glyph-name=".null" horiz-adv-x="0" 
 />
    <glyph glyph-name="nonmarkingreturn" horiz-adv-x="341" 
 />
    <glyph glyph-name="x" unicode="x" horiz-adv-x="1001" 
d="M281 543q-27 -1 -53 -1h-83q-18 0 -36.5 -6t-32.5 -18.5t-23 -32t-9 -45.5v-76h912v41q0 16 -0.5 30t-0.5 18q0 13 -5 29t-17 29.5t-31.5 22.5t-49.5 9h-133v-97h-438v97zM955 310v-52q0 -23 0.5 -52t0.5 -58t-10.5 -47.5t-26 -30t-33 -16t-31.5 -4.5q-14 -1 -29.5 -0.5
t-29.5 0.5h-32l-45 128h-439l-44 -128h-29h-34q-20 0 -45 1q-25 0 -41 9.5t-25.5 23t-13.5 29.5t-4 30v167h911zM163 247q-12 0 -21 -8.5t-9 -21.5t9 -21.5t21 -8.5q13 0 22 8.5t9 21.5t-9 21.5t-22 8.5zM316 123q-8 -26 -14 -48q-5 -19 -10.5 -37t-7.5 -25t-3 -15t1 -14.5
t9.5 -10.5t21.5 -4h37h67h81h80h64h36q23 0 34 12t2 38q-5 13 -9.5 30.5t-9.5 34.5q-5 19 -11 39h-368zM336 498v228q0 11 2.5 23t10 21.5t20.5 15.5t34 6h188q31 0 51.5 -14.5t20.5 -52.5v-227h-327z" />
    <glyph glyph-name="uniE600" unicode="&#xe600;" 
d="M811 775h-57v60h-101q-55 61 -143 61t-143 -61h-97v-60h-59q-63 0 -107.5 -45t-44.5 -106v-598q0 -65 44.5 -109.5t107.5 -44.5h600q63 0 107.5 44t46.5 108v598q0 64 -45.5 108.5t-108.5 44.5zM901 24q0 -36 -25.5 -62.5t-62.5 -26.5h-604q-36 0 -62 26t-26 63v604
q0 35 25.5 61.5t62.5 26.5l90 -2v32h33v29h65l11 12q31 48 102 48q32 0 59.5 -13t42.5 -35l11 -14h65v-29h33v-32h90q36 0 62 -26t26 -62v-600h2zM811 -128zM371 173h313v-61h-313v61zM242 304h569v-61h-569v61zM242 450h569v-62h-569v62zM680 126zM688 810v-143h-356v149
h-64v-213h2h62h356h64v207h-64z" />
    <glyph glyph-name="uniE601" unicode="&#xe601;" 
d="M512 -128q-104 0 -198.5 40.5t-163.5 109.5t-109.5 163.5t-40.5 198.5t40.5 198.5t109.5 163.5t163.5 109.5t198.5 40.5t198.5 -40.5t163.5 -109.5t109.5 -163.5t40.5 -198.5t-40.5 -198.5t-109.5 -163.5t-163.5 -109.5t-198.5 -40.5zM512 838q-93 0 -177 -36
t-144.5 -96.5t-96.5 -144.5t-36 -177t36 -177t96.5 -144.5t144.5 -96.5t177 -36t177 36t144.5 96.5t96.5 144.5t36 177t-36 177t-96.5 144.5t-144.5 96.5t-177 36zM531 102zM531 102zM364 671l168 -164l-41 -41l-167 163zM657 669l40 -41l-165 -163l-40 42zM483 486h58v-384
h-58v384zM330 311l364 -1v-58l-364 1v58zM330 434h362v-58h-362v58z" />
    <glyph glyph-name="uniE602" unicode="&#xe602;" 
d="M512 -128q-104 0 -198.5 40.5t-163.5 109.5t-109.5 163.5t-40.5 198.5t40.5 198.5t109.5 163.5t163.5 109.5t198.5 40.5t198.5 -40.5t163.5 -109.5t109.5 -163.5t40.5 -198.5t-40.5 -198.5t-109.5 -163.5t-163.5 -109.5t-198.5 -40.5zM512 838q-93 0 -177 -36
t-144.5 -96.5t-96.5 -144.5t-36 -177t36 -177t96.5 -144.5t144.5 -96.5t177 -36t177 36t144.5 96.5t96.5 144.5t36 177t-36 177t-96.5 144.5t-144.5 96.5t-177 36zM582 274h-340v58h282v402h58v-460z" />
    <glyph glyph-name="uniE603" unicode="&#xe603;" horiz-adv-x="1065" 
d="M0 -128v954q0 28 21 49t49 21h924q28 0 49 -21t21 -49v-894h-60v894q0 10 -10 10h-474l94 -289h346l-279 -203l106 -327l-295 212zM60 545v-553l432 314l16 -12l18 -12l147 -107l-63 193l165 120h-205l-62 193l-62 -193h-205l165 -120l8 -6l-37 -48l-44 32v2zM60 547h342
l92 289h-424q-10 0 -10 -10v-279z" />
    <glyph glyph-name="uniE604" unicode="&#xe604;" 
d="M626 231l-213 201l-168 -176l-40 39l207 218l210 -199l172 199l43 -36zM512 -128q-104 0 -198.5 40.5t-163.5 109.5t-109.5 163.5t-40.5 198.5t40.5 198.5t109.5 163.5t163.5 109.5t198.5 40.5t198.5 -40.5t163.5 -109.5t109.5 -163.5t40.5 -198.5t-40.5 -198.5
t-109.5 -163.5t-163.5 -109.5t-198.5 -40.5zM512 838q-93 0 -177 -36t-144.5 -96.5t-96.5 -144.5t-36 -177t36 -177t96.5 -144.5t144.5 -96.5t177 -36t177 36t144.5 96.5t96.5 144.5t36 177t-36 177t-96.5 144.5t-144.5 96.5t-177 36zM529 -58z" />
    <glyph glyph-name="uniE605" unicode="&#xe605;" 
d="M546 557h-43l6 33q3 18 6.5 33t14.5 48.5t23.5 58.5t34.5 51t49 37h1q18 6 45 6q11 0 15 -2q38 -13 49 -25q29 -32 29 -68q-4 -39 -43 -73l-4 2q-8 -5 -38.5 -24t-75.5 -43.5t-65 -31.5zM658 766q-50 -25 -81 -129q55 29 117 69q22 18 22 31q0 15 -14 25q-8 4 -19 8
q-12 -4 -25 -4zM521 536l-47 27q-33 11 -69 27t-74.5 40t-67.5 51t-45 61t-10 68v2q1 8 6.5 21t20 31t33.5 25q38 18 91 -11q10 -7 30.5 -26t30.5 -34q92 -132 99 -228zM266 799q-7 -42 50 -87.5t135 -76.5q-20 63 -79 152q-7 9 -22 24t-20 19q-18 7 -31 7q-6 0 -8 -2
q-8 -4 -16 -16t-9 -20zM509 332h-427q-11 0 -20 8.5t-9 19.5v180q0 12 9 20.5t20 8.5h427q12 0 20.5 -8.5t8.5 -20.5v-180q0 -11 -8 -19.5t-21 -8.5zM111 389h369v122h-369v-122zM509 -128h-367q-11 0 -20 8.5t-9 20.5v456q0 11 9 20t20 9h367q12 0 20.5 -9t8.5 -20v-456
q0 -12 -8 -20.5t-21 -8.5zM173 -70h309v398h-309v-398zM880 -128h-367q-12 0 -20.5 8.5t-8.5 20.5v456q0 11 8.5 20t20.5 9h367q11 0 20 -9t9 -20v-456q0 -12 -8 -20.5t-21 -8.5zM542 -70h309v398h-309v-398zM942 332h-429q-12 0 -20.5 8.5t-8.5 19.5v180q0 12 8.5 20.5
t20.5 8.5h429q11 0 20 -8.5t9 -20.5v-180q0 -11 -9 -19.5t-20 -8.5zM542 389h369v122h-369v-122zM963 360z" />
    <glyph glyph-name="uniE606" unicode="&#xe606;" horiz-adv-x="1429" 
d="M1253 -128h-1078q-73 0 -124 51t-51 124v674q0 73 51 124t124 51h1078q73 0 124 -51t51 -124v-674q0 -73 -51 -124t-124 -51zM175 815q-38 0 -66 -28t-28 -66v-674q0 -38 28 -66t66 -28h1078q38 0 66 28t28 66v674q0 38 -28 66t-66 28h-1078zM1320 82zM1151 344h-135
q-58 0 -99 41.5t-41 98.5v134q0 59 41.5 101t98.5 42h135q58 0 99 -42t41 -101v-134q2 -57 -40 -98.5t-100 -41.5zM1016 680q-24 0 -41.5 -17.5t-17.5 -41.5v-135q0 -24 17.5 -41.5t41.5 -17.5h135q24 0 41.5 17.5t17.5 41.5v135q2 24 -15.5 41.5t-43.5 17.5h-135zM1186 519
zM207 384h610h-610zM207 424h607v-80h-607v80zM207 384zM207 290h607v-81h-607v81zM207 249z" />
    <glyph glyph-name="uniE607" unicode="&#xe607;" 
d="M830 -128h-636q-36 0 -62.5 26.5t-26.5 64.5v462q0 37 26.5 63.5t62.5 26.5h636q36 0 62.5 -26.5t26.5 -63.5v-462q0 -38 -26.5 -64.5t-62.5 -26.5zM194 457q-13 0 -22 -9.5t-9 -22.5v-462q0 -13 9 -23t22 -10h636q13 0 22 10t9 23v462q0 13 -9 22.5t-22 9.5h-636z
M194 446zM511 -14zM646 197zM646 90zM289 473h-58v145q0 116 79 195q83 83 201 83q125 0 205 -89q81 -87 75 -205v-31h-58v31q6 97 -60 163q-61 73 -162 73q-95 0 -160 -66q-64 -63 -64 -154v-145h2zM260 473zM536 -22zM416 404l125 -122l-41 -41l-124 121zM623 403l41 -41
l-122 -121l-41 42zM492 262h58v-284h-58v284zM386 139l268 -1v-58l-269 1zM385 231h269v-58h-269v58z" />
    <glyph glyph-name="uniE608" unicode="&#xe608;" horiz-adv-x="1441" 
d="M823 -128l-38 8l-527 101h-141v407l212 44l505 -212q26 -11 43 -36.5t17 -56.5v-11l-6 -24q-11 -27 -39 -43.5t-56 -16.5q-11 0 -32 6l-218 76l-2 -106l255 -49q42 8 77 37.5t53 73.5q11 26 11 65v25l364 195q11 6 35 6q58 0 87 -46q26 -30 14 -74q-2 -22 -15 -39.5
t-34 -25.5zM198 62h74l187 -35l8 204l321 -115q8 -2 24 6l3 8q0 10 -8 14l-484 201l-122 -25v-258h-3zM1016 111q0 -7 -1.5 -14.5t-3.5 -16.5t-3 -15l345 187v6l2 5v3v5q-2 5 -10 7.5t-14 0.5zM0 440h81v-525h-81v525zM1146 673zM899 315zM738 896l169 -165l-57 -59
l-169 166zM1016 895l57 -58l-166 -164l-57 58zM837 703h81v-388h-81v388zM695 538l364 -1v-82l-364 2v81zM1062 661v-81l-364 -1v82h364z" />
    <glyph glyph-name="uniE609" unicode="&#xe609;" 
d="M874.5 708q-8.5 -7 -9.5 -17.5t6 -18.5q102 -126 102 -288q0 -93 -36.5 -177.5t-97.5 -145.5t-145.5 -97t-177 -36t-177 36t-146 97t-97.5 145.5t-36 177.5t36 177.5t97.5 145.5t146 97t176.5 36q126 0 233 -63q9 -5 19 -2.5t15.5 11.5t3 19.5t-11.5 15.5
q-119 71 -259 71q-103 0 -197 -40t-162 -108.5t-108.5 -162.5t-40.5 -197t40.5 -197t108.5 -162t162 -108.5t197.5 -40.5t197.5 40.5t162 108.5t108.5 162t40.5 197q0 87 -29.5 170t-84.5 150q-7 8 -17.5 9.5t-19 -5.5zM708 359q10 0 17.5 7.5t7.5 18t-7.5 18.5t-17.5 8
h-166v45l164 164q8 8 8 18.5t-7.5 18t-18.5 7.5t-18 -7l-153 -153l-154 154q-8 7 -18.5 7t-18 -7.5t-7.5 -18t8 -18.5l164 -164v-46h-166q-10 0 -18 -8t-8 -18.5t8 -18t18 -7.5h165v-71h-165q-10 0 -18 -7.5t-8 -18t8 -18t18 -7.5h165v-125q0 -11 8 -18.5t18.5 -7.5t18 7.5
t7.5 18.5v125h165q11 0 18.5 7.5t7.5 18t-7.5 18t-18.5 7.5h-165v71h166z" />
    <glyph glyph-name="uniE60A" unicode="&#xe60a;" 
d="M512 -128q-104 0 -198.5 40.5t-163.5 109.5t-109.5 163.5t-40.5 198.5t40.5 198.5t109.5 163.5t163.5 109.5t198.5 40.5t198.5 -40.5t163.5 -109.5t109.5 -163.5t40.5 -198.5t-40.5 -198.5t-109.5 -163.5t-163.5 -109.5t-198.5 -40.5zM512 838q-93 0 -177 -36
t-144.5 -96.5t-96.5 -144.5t-36 -177t36 -177t96.5 -144.5t144.5 -96.5t177 -36t177 36t144.5 96.5t96.5 144.5t36 177t-36 177t-96.5 144.5t-144.5 96.5t-177 36zM512 127q-16 0 -26.5 11t-10.5 26t11 25.5t26 10.5q16 0 26.5 -10.5t10.5 -25.5t-10.5 -26t-26.5 -11z
M510 229q-12 0 -19.5 8t-7.5 19q0 53 14 85q15 37 48 64q37 29 54 60q13 27 13 54q0 32 -21 56q-22 25 -73 25q-57 0 -83 -38q-18 -29 -18 -66q0 -13 -7.5 -21t-19.5 -8h-2q-8 0 -17 6q-8 8 -8 21q0 73 49 116q44 39 106 39h8q59 0 98 -33q43 -34 43 -101q0 -37 -18 -69
q-16 -31 -56 -64q-29 -22 -44 -52q-12 -26 -12 -74q0 -12 -10 -19q-5 -8 -17 -8zM510 229z" />
    <glyph glyph-name="uniE60B" unicode="&#xe60b;" 
d="M866 704h-304q-8 62 -55.5 103.5t-110.5 41.5h-239q-68 0 -110.5 -48.5t-42.5 -119.5v-607q0 -70 42 -112.5t112 -42.5h708q69 0 111.5 42.5t42.5 112.5v461q1 71 -42.5 120t-111.5 49zM43 704q10 42 43.5 69.5t77.5 27.5h223q44 0 78 -27.5t44 -69.5h-466zM977 88
q0 -53 -34.5 -89t-85.5 -36h-683q-51 0 -88 36.5t-37 88.5v561h803q52 0 88.5 -37t36.5 -88v-436zM711 552h-56l-130 -185l-133 185h-54l137 -191h-136v-44h172v-87h-172v-45h172v-108h45v108h156v45h-156v87h156v44h-138z" />
    <glyph glyph-name="uniE60C" unicode="&#xe60c;" 
d="M1000 233q-9 103 -46 172q-34 63 -100 125q-40 38 -92 73q-5 4 -21.5 11t-27.5 14t-13 16q-1 5 6 15q5 6 19 18.5t18 17.5q16 18 32 42q11 17 17.5 34.5t6 38t-11.5 36.5q-31 44 -113 44h-319q-27 0 -51 -5.5t-44 -19t-27 -35t0 -52.5q15 -51 71 -107q14 -14 31.5 -8
t22 22t-7.5 31q-22 22 -39 48q-14 21 -18 39q-1 4 0 10q0 -1 1 0t3.5 3t5.5 3q8 4 19.5 6t20 2t23 -0.5t19.5 -0.5h121q20 0 56 0.5t65.5 0.5t55.5 -1q27 0 45 -11q7 -3 7 -10q0 -18 -27 -53q-8 -9 -29.5 -30t-32 -38.5t-10.5 -40.5q0 -14 3.5 -25t14 -20.5t16 -13.5t23 -14
t20.5 -11q104 -62 168 -158q59 -88 55 -190q-1 -23 -8 -51q-9 -36 -31 -71q-30 -47 -82 -79.5t-115 -46.5t-121 -18t-118 -1q-55 3 -105 14.5t-98 34.5t-84.5 63t-53.5 94q-12 36 -14 96q0 10 1 22q0 1 3 13q2 10 5 22q38 134 214 258q15 11 13.5 30t-15.5 26.5t-31 -1.5
q-186 -132 -239 -284q-27 -78 -5 -176q14 -64 50 -114.5t87 -82t107.5 -50t120.5 -25.5q129 -16 258 7.5t215 94.5q53 43 84.5 111.5t25.5 135.5zM377 218q-18 0 -25 -14.5t0 -28.5t25 -14h123v-99q0 -17 14.5 -24.5t28.5 0t14 24.5v99h125q18 0 25 14t0 28.5t-25 14.5h-125
v71h110q17 0 24 14t0 28.5t-24 14.5h-64q6 5 13 11.5t15 14t13 11.5q13 12 8 27t-19.5 19.5t-28.5 -5.5q-13 -11 -37.5 -34t-37.5 -34q-11 11 -34.5 33.5t-35.5 34.5t-27.5 6.5t-19.5 -19.5t7 -28q6 -5 12.5 -11.5t14.5 -14t12 -11.5h-67q-18 0 -25 -14.5t0 -28.5t25 -14
h109v-71h-123z" />
    <glyph glyph-name="uniE60D" unicode="&#xe60d;" 
d="M986 516l48 5v247q0 50 -36 86.5t-87 36.5h-798q-51 0 -87 -36.5t-36 -86.5v-247l48 -5q51 -6 84.5 -43.5t33.5 -88t-33.5 -88.5t-84.5 -44l-48 -5v-246q0 -51 36 -87t87 -36h798q51 0 87 36t36 87v246l-48 5q-51 6 -84.5 44t-33.5 88t33.5 88t84.5 44zM980 198v-197
q0 -29 -20.5 -49t-48.5 -20h-798q-28 0 -48.5 20t-20.5 49v197q71 9 118.5 61.5t47.5 124.5t-47.5 124.5t-118.5 61.5v198q0 28 20.5 48.5t48.5 20.5h798q28 0 48.5 -20.5t20.5 -48.5v-198q-71 -9 -119 -61.5t-48 -124.5t48 -124.5t119 -61.5zM529 566h154v-54h-154v54z
M529 411h154v-54h-154v54zM529 256h154v-54h-154v54zM341 679h54v-55h-54v55zM341 589h54v-54h-54v54zM341 500h54v-54h-54v54zM341 411h54v-54h-54v54zM341 322h54v-54h-54v54zM341 233h54v-54h-54v54zM341 144h54v-55h-54v55z" />
    <glyph glyph-name="uniE60E" unicode="&#xe60e;" 
d="M803 880h-582q-89 0 -152.5 -63.5t-63.5 -152.5v-560q0 -89 63.5 -152.5t152.5 -63.5h582q89 0 152.5 63.5t63.5 152.5v560q0 89 -63.5 152.5t-152.5 63.5zM966 104q0 -67 -48 -115t-115 -48h-582q-67 0 -115 48t-48 115v560q0 67 48 115t115 48h582q67 0 115 -48
t48 -115v-560zM778 638h-524q-11 0 -19 -8t-8 -18.5t8 -18.5t19 -8h524q11 0 18.5 8t7.5 18.5t-7.5 18.5t-18.5 8zM778 417h-524q-11 0 -19 -7.5t-8 -18.5t8 -19t19 -8h524q11 0 18.5 8t7.5 19t-7.5 18.5t-18.5 7.5zM778 197h-524q-11 0 -19 -8t-8 -19t8 -18.5t19 -7.5h524
q11 0 18.5 7.5t7.5 18.5t-7.5 19t-18.5 8z" />
    <glyph glyph-name="uniE60F" unicode="&#xe60f;" 
d="M855 371l116 -1h1q25 0 34.5 23.5t-8.5 41.5l-436 436q-20 20 -51 20t-52 -20l-433 -434q-18 -18 -8.5 -41t34.5 -23h104v-451q0 -19 13 -32t32 -13h283q13 0 21 10l256 348q11 15 0 30l-115 161q-8 11 -21 11h-236q-13 0 -21 -11l-119 -160q-12 -17 2 -33l204 -222
q8 -8 18.5 -8.5t18.5 7t8.5 18t-6.5 18.5l-190 206l98 132h210l96 -134l-237 -321h-263v451q0 18 -13 31.5t-32 13.5h-76l409 409q6 6 15 6t14 -6l412 -411h-90q-19 -1 -31 -13q-14 -13 -14 -32v-449h-209q-11 0 -18.5 -7.5t-7.5 -18.5t7.5 -18.5t18.5 -7.5h217
q18 0 31.5 13t13.5 32v449z" />
    <glyph glyph-name="uniE610" unicode="&#xe610;" 
d="M898 41v293q0 65 -45 111.5t-109 49.5q1 4 1 5v64q0 22 -2 61.5t-6 61t-12 53.5t-19.5 50t-29.5 39.5t-40.5 32.5t-54 18.5t-69.5 7.5q-49 0 -86.5 -13.5t-62 -32t-41.5 -53.5t-25 -62t-12.5 -75t-5 -74.5t-0.5 -77.5q0 -1 1 -3v-2q-64 -3 -109 -49.5t-45 -111.5v-293
q0 -66 47.5 -113.5t114.5 -47.5h448q67 0 114.5 47t47.5 114zM512 837q29 0 52 -4.5t41 -12.5t31.5 -22.5t23 -29.5t16 -39t10 -45.5t5.5 -54.5t2.5 -60.5t0.5 -68.5q0 -1 1 -3v-1h-366l1 2v2q0 75 4 125.5t15 93.5t31.5 67.5t52.5 37.5t79 13zM178 41v293q0 46 32 78.5
t78 32.5h448q46 0 78 -32.5t32 -78.5v-293q0 -45 -32 -77.5t-78 -32.5h-448q-46 0 -78 32.5t-32 77.5zM497 180v-63q0 -11 7.5 -18.5t18 -7.5t18 7.5t7.5 18.5v63q16 8 26 22.5t10 33.5q0 25 -18 43t-43.5 18t-43.5 -18t-18 -43q0 -19 10 -33.5t26 -22.5z" />
    <glyph glyph-name="uniE611" unicode="&#xe611;" 
d="M100 755q-39 0 -66.5 -27.5t-27.5 -67.5v-552q0 -40 27.5 -67.5t66.5 -27.5h824q39 0 66.5 27.5t27.5 67.5v552q0 40 -27.5 67.5t-66.5 27.5h-824zM924 703q16 0 28 -11l-440 -411l-441 411q13 11 29 11h824zM966 634v-465l-249 232zM58 634l249 -233l-249 -232v465z
M924 65h-824q-17 0 -29.5 12.5t-12.5 30.5v8l8 -10l279 260l149 -139q8 -7 18 -7t18 7l149 139l279 -260l8 10v-8q0 -18 -12.5 -30.5t-29.5 -12.5z" />
    <glyph glyph-name="uniE612" unicode="&#xe612;" 
d="M825 315q0 33 -23.5 56.5t-56.5 23.5t-56.5 -23.5t-23.5 -56.5t23.5 -56.5t56.5 -23.5t56.5 23.5t23.5 56.5zM717 315q0 12 8 20t20 8t20 -8t8 -20t-8.5 -20.5t-20 -8.5t-19.5 8.5t-8 20.5zM304 634q11 0 18 8q8 8 7.5 18.5t-8.5 17.5q-30 28 -30 69q0 39 27.5 66.5
t66 27.5t66 -27.5t27.5 -66.5q0 -25 -14 -48q-6 -9 -3 -19.5t12 -16t19.5 -3t15.5 11.5q21 35 21 75q0 60 -42.5 102.5t-102.5 42.5t-102.5 -42.5t-42.5 -102.5q0 -63 47 -107q8 -6 18 -6zM942 395h-36h-5q-43 120 -121 155q-10 4 -19 7q17 48 29 75q7 19 -2 38
q-9 18 -29 23q-45 12 -91.5 -2.5t-74.5 -61.5q-59 12 -119 12q-191 0 -305 -107q-12 -11 -39 -46q-6 -9 -4.5 -19.5t10 -17t19 -5t16.5 9.5q25 33 33 40q99 94 270 94q66 0 126 -16l21 -5l9 20q16 37 46.5 49.5t62.5 6.5q-4 -10 -9 -23.5t-9.5 -26t-8.5 -23.5t-6 -18l-3 -8
l-11 -30l33 -4q13 0 34 -9q58 -26 93 -125q13 -35 54 -35h36q10 0 10 -10v-108q0 -5 -3 -8t-7 -3h-36q-40 0 -59 -40q-34 -71 -101 -108q-22 -12 -27 -32q-5 -18 3 -34l11 -29q4 -12 -7 -16l-72 -27q-11 -5 -16 8l-1 2q-1 2 -2.5 6t-3 8.5t-4 10.5t-4.5 12q-12 35 -46 35
q-8 0 -25 -1q-41 -5 -78 -5q-38 0 -79 8q-17 4 -24 4q-30 0 -44 -36l-17 -45q-5 -12 -16 -7l-71 27q-5 2 -7 6q-2 5 -1 9q19 49 21 55q12 38 -22 64q-103 83 -103 175q0 56 13 100q5 8 3 18.5t-2.5 16t-6 14t-8.5 11.5l-9 11q-10 10 -14.5 16.5t-9.5 19.5t-5 28
q0 25 12.5 40t28.5 15q11 0 18.5 7.5t7.5 18.5t-7.5 18.5t-18.5 7.5q-36 0 -64 -29.5t-28 -77.5q0 -24 8 -45.5t15 -31t19 -22.5q14 -15 12 -21q-15 -51 -15 -114q0 -117 124 -217q2 -2 4 -3q0 -2 -1 -4q-4 -14 -19 -52q-10 -25 1 -49t36 -33l71 -27q23 -10 48 1.5t34 35.5
l18 45v2q1 0 2.5 -0.5t3.5 -0.5t3 -1q45 -9 90 -9q39 0 83 5q12 1 17 1q3 -10 7 -20.5t6 -15.5l3 -6q7 -19 23.5 -30t36.5 -11q12 0 22 4l71 27q25 9 36 33t1 49l-11 31l1 1q81 45 122 131q4 8 6 9.5t7 1.5h36q26 0 44 18t18 44v108q0 26 -18.5 44t-43.5 18z" />
    <glyph glyph-name="uniE613" unicode="&#xe613;" 
d="M637 398q60 34 95.5 94.5t35.5 131.5q0 108 -76.5 184.5t-184.5 76.5t-184.5 -76.5t-76.5 -184.5q0 -72 36.5 -133t97.5 -95q-163 -44 -268.5 -179.5t-105.5 -308.5q0 -10 7.5 -17.5t18 -7.5t18 7.5t7.5 17.5q0 92 36.5 176.5t97 145.5t145 97t176.5 36t176.5 -36
t145.5 -97t97 -145t36 -177q0 -10 7.5 -17.5t18 -7.5t18 7.5t7.5 17.5q0 175 -108 311t-273 179zM297 624q0 87 61.5 148.5t148.5 61.5t148.5 -61.5t61.5 -148.5t-61.5 -148.5t-148.5 -61.5t-148.5 61.5t-61.5 148.5z" />
    <glyph glyph-name="uniE614" unicode="&#xe614;" 
d="M377 -123h270q87 0 136 39.5t49 109.5v716q0 40 -10 68.5t-25.5 44t-41.5 24t-49.5 10.5t-58.5 2h-270q-87 0 -136 -39.5t-49 -109.5v-716q0 -38 12 -66.5t30 -44t44 -24.5t48.5 -11.5t50.5 -2.5zM246 742q0 28 11.5 48t32 29.5t41.5 13.5t46 4h270q82 0 106.5 -18
t24.5 -77v-716q0 -28 -11.5 -48t-32 -29.5t-41.5 -13.5t-46 -4h-270q-77 0 -104 23t-27 72v716zM412 722h205q11 0 19 7.5t8 19t-8 19.5t-19 8h-205q-11 0 -19 -8t-8 -19.5t8 -19t19 -7.5zM453 38q-35 -28 -35 -72q0 -39 27.5 -66.5t66.5 -27.5t66.5 27.5t27.5 66.5
q0 44 -34 72q34 28 34 72q0 39 -27.5 66.5t-66.5 27.5t-66.5 -27.5t-27.5 -66.5q0 -44 34 -72h1z" />
    <glyph glyph-name="uniE615" unicode="&#xe615;" 
d="M1005 581l-139 276h-708l-139 -276q-3 -6 -8 -23t-5.5 -52.5t13.5 -64.5q32 -61 121 -81q1 0 3 -0.5t6 -1t8.5 -1t11 -1t13.5 -0.5q22 0 43.5 4t47 14.5t47 33t33.5 54.5h5q10 -40 42.5 -73.5t89.5 -39.5q16 -1 21 -1q2 0 7.5 0.5t9.5 0.5h5q57 6 89.5 39.5t42.5 73.5h4
q13 -32 34.5 -54.5t47 -33t47 -14.5t43.5 -4q6 0 12.5 0.5t11.5 1t8.5 1t6.5 1.5h2q90 20 121 81q33 62 2 140zM968 460q-23 -44 -93 -59q-14 -3 -32 -3q-109 0 -137 91l-5 15h-71l-2 -19v-1q-1 -6 -2.5 -12t-8 -20.5t-16 -25.5t-27.5 -21.5t-41 -13.5q-15 -1 -21 -1l-22 1
q-23 3 -41 13.5t-27 21.5t-15.5 25.5t-8 20.5t-2.5 12v1l-2 19h-71l-5 -15q-28 -91 -137 -91l-32 3q-71 15 -93 59q-23 44 0 103l125 252h661l125 -252q3 -7 7 -21t4 -38.5t-10 -43.5zM185 626h652v-41h-652v41zM902 23q0 -25 -17 -42t-42 -17h-664q-24 0 -41.5 17.5
t-17.5 41.5v273h-54v-286q0 -41 29 -70t69 -29h694q40 0 69 29t29 70v286h-54v-273z" />
    <glyph glyph-name="uniE616" unicode="&#xe616;" 
d="M325 551q24 24 37.5 41t23.5 41t6 48.5t-20.5 57.5t-48.5 74q-62 77 -127 77q-27 0 -55 -15.5t-43.5 -29.5t-40.5 -40q-12 -13 -18 -19q-33 -33 -33.5 -98.5t32.5 -151.5q71 -188 254 -372q76 -75 154.5 -132.5t146 -89.5t123 -48t98.5 -16q67 0 101 34q3 4 18 18
q20 19 31 30.5t26.5 31t22 40t5.5 41.5q-2 62 -77 122q-86 69 -146 69q-23 0 -46 -11t-35.5 -22t-34.5 -34l-11 -10q-3 -4 -10 -4q-55 0 -202 146q-145 145 -145 201q0 6 3 10zM420 292q161 -161 238 -161q29 0 47 19l11 10q28 29 44 40.5t36 11.5q41 0 113 -58
q55 -45 57 -83q1 -17 -11 -37t-23.5 -32.5t-34.5 -33.5l-19 -19q-18 -18 -64 -18q-88 0 -220.5 69.5t-264.5 200.5q-175 176 -242 353q-19 49 -25 91t-2 67t16 37q8 8 19 20l33 33q12 12 32 23.5t36 11.5q39 0 86 -57q22 -28 35.5 -49t17.5 -38.5t4.5 -29.5t-9 -26.5
t-17 -23t-25.5 -25.5l-11 -11q-18 -19 -18 -47q0 -77 161 -238z" />
    <glyph glyph-name="uniE617" unicode="&#xe617;" 
d="M1007 455q10 10 10 23.5t-9.5 23.5t-23.5 10t-24 -10l-461 -461l-436 436q-9 9 -23 9t-23.5 -9.5t-9.5 -23t10 -23.5l459 -459q10 -10 23.5 -10t23.5 10zM476 266q10 -10 23.5 -10t23.5 10l484 485q10 9 10 23t-9.5 23.5t-23.5 9.5t-23 -10l-461 -461l-437 436
q-9 10 -23 10t-23.5 -10t-9.5 -23.5t10 -23.5z" />
    <glyph glyph-name="uniE618" unicode="&#xe618;" 
d="M32 168v-114q0 -72 51 -123t123 -51h622q72 0 123 51t51 123v660q0 72 -51 123t-123 51h-622q-72 0 -123 -51t-51 -123v-120q0 -11 7.5 -18.5t18.5 -7.5t18.5 7.5t7.5 18.5v120q0 50 36 86t86 36h623q50 0 86 -36t36 -86v-660q0 -50 -36 -86t-86 -36h-623q-51 0 -86.5 36
t-35.5 86v114q0 11 -7.5 18.5t-18.5 7.5t-18.5 -7.5t-7.5 -18.5zM22 384q0 -11 7.5 -18.5t18.5 -7.5h660l-160 -160q-8 -8 -8 -18.5t8 -18t18.5 -7.5t18.5 7l189 203l4 4l5 5v8q0 1 0.5 1.5t0.5 1.5v1v4l-8 26l-7 11l-3 3l-178 178q-8 7 -18.5 7t-18 -7.5t-7.5 -18t7 -18.5
l160 -160h-663q-11 0 -18.5 -7.5t-7.5 -18.5z" />
    <glyph glyph-name="uniE619" unicode="&#xe619;" 
d="M769 364q8 8 8 18.5t-8 18.5l-478 478q-7 7 -18 7t-18.5 -7.5t-7.5 -18t8 -18.5l459 -459l-456 -457q-8 -8 -8 -18.5t7.5 -18t18.5 -7.5t18 7z" />
    <glyph glyph-name="uniE61A" unicode="&#xe61a;" 
d="M261 384h274q10 0 16.5 6.5t6.5 16t-6.5 16.5t-16.5 7h-274q-10 0 -16.5 -7t-6.5 -16.5t6.5 -16t16.5 -6.5zM879 750h-183v46q0 19 -13.5 32.5t-32.5 13.5h-92q0 19 -13.5 32.5t-32.5 13.5t-32.5 -13.5t-13.5 -32.5h-91q-19 0 -32.5 -13.5t-13.5 -32.5v-46h-183
q-19 0 -32.5 -13.5t-13.5 -32.5v-778q0 -19 13.5 -32.5t32.5 -13.5h732q19 0 32.5 13.5t13.5 32.5v778q0 19 -13 32.5t-32 13.5zM375 796h275v-92h-275v92zM879 -74h-733v641h733v-641zM879 613h-733v91h183q0 -19 13.5 -32.5t32.5 -13.5h275q19 0 32.5 13.5t13.5 32.5h183
v-91zM261 109h412q9 0 16 6.5t7 16t-7 16.5t-16 7h-412q-10 0 -16.5 -7t-6.5 -16.5t6.5 -16t16.5 -6.5zM261 246h503q10 0 16.5 7t6.5 16.5t-6.5 16t-16.5 6.5h-503q-10 0 -16.5 -6.5t-6.5 -16.5q0 -9 6.5 -16t16.5 -7z" />
    <glyph glyph-name="uniE61B" unicode="&#xe61b;" 
d="M365 381q-99 0 -169 -70t-70 -169q0 -10 7.5 -18t18 -8t18.5 8t8 18q0 77 55 132t132.5 55t132.5 -55t55 -132q0 -10 7.5 -18t18 -8t18.5 8t8 18q-1 99 -71 169t-169 70zM873 282.5q0 10.5 -7.5 18.5t-18.5 8h-214q-11 0 -18.5 -8t-7.5 -18.5t7.5 -18t18.5 -7.5h214
q11 0 18.5 7.5t7.5 18zM1017 758q0 48 -34 81.5t-81 33.5h-780q-47 0 -81 -33.5t-34 -81.5v-748q0 -48 34 -81.5t81 -33.5h474q11 0 19 7.5t8 18.5t-8 19t-19 8h-474q-25 0 -43.5 18.5t-18.5 43.5v748q0 26 18.5 44t43.5 18h780q25 0 43.5 -18t18.5 -44v-748
q0 -26 -18.5 -44t-43.5 -18q-11 0 -19 -8t-8 -19t8 -18.5t19 -7.5q47 0 81 33.5t34 81.5v748zM633 533h214q11 0 18.5 7.5t7.5 18t-7.5 18t-18.5 7.5h-214q-11 0 -18.5 -7.5t-7.5 -18t7.5 -18t18.5 -7.5zM493 540.5q0 52.5 -37.5 90t-90.5 37.5t-90.5 -37.5t-37.5 -90
t37.5 -90t90.5 -37.5t90.5 37.5t37.5 90zM289 540.5q0 31.5 22 53.5t53.5 22t54 -22t22.5 -53.5t-22.5 -53.5t-54 -22t-53.5 22t-22 53.5z" />
    <glyph glyph-name="uniE61C" unicode="&#xe61c;" 
d="M89 474l21 63l63 21l-63 21l-21 64l-21 -64l-63 -21l63 -21zM896 315l-30 -92l-92 -30l92 -31l30 -92l31 92l92 31l-92 30zM174 186q4 -26 23 -43.5t45 -20.5q11 -1 26 0q18 0 54.5 1t54.5 2l51 2l4 -86q1 -30 21 -49q17 -16 41 -16q28 0 50 24l232 247q18 19 22 46.5
t-5 44.5q-12 29 -40 29h-577l-3 -27q-5 -54 -3 -95l1 -35q0 -10 3 -24zM229 308h512q0 -14 -7 -21l-233 -248q-5 -5 -7 -5h-1q-3 3 -3 10l-6 142l-109 -3q-38 -1 -109 -4h-5q-7 0 -13 1q-15 1 -17 16q-2 8 -2 16l-1 35q-1 26 1 61zM216 402h577l2 26q5 54 4 95l-1 35
q-1 10 -3 24q-5 26 -23.5 43.5t-44.5 20.5q-12 1 -26 0q-18 0 -54.5 -1t-55.5 -2l-50 -2l-4 86q-2 31 -21 49q-17 16 -41 16q-28 0 -50 -24l-233 -247q-17 -19 -21 -46.5t4 -44.5q13 -28 41 -28zM235 481l232 248q6 5 9 5q3 -3 3 -10l6 -142l108 3q39 1 110 3l5 1q7 0 13 -1
q14 -2 17 -16l2 -16l1 -35q1 -26 -2 -61h-511q0 14 7 21z" />
    <glyph glyph-name="uniE61D" unicode="&#xe61d;" 
d="M900 39v295q0 67 -48 115t-115 48h-409v1q1 2 1 3q0 75 4 126t15 94.5t31.5 67.5t53 37.5t79.5 13.5q50 0 81.5 -8.5t56 -34t35 -72.5t10.5 -121q0 -11 7.5 -18.5t18.5 -7.5t18.5 7.5t7.5 18.5q0 155 -54 221.5t-181 66.5q-49 0 -87 -14t-62.5 -32.5t-41.5 -54t-25.5 -63
t-13 -75.5t-5 -74.5t-0.5 -77.5q0 -1 1 -3v-2q-64 -4 -109 -50.5t-45 -111.5v-295q0 -67 47.5 -115t115.5 -48h450q68 0 115.5 48t47.5 115zM175 39v295q0 46 33 78.5t79 32.5h450q46 0 79 -32.5t33 -78.5v-295q0 -46 -33 -78.5t-79 -32.5h-450q-46 0 -79 32.5t-33 78.5z
M497 179v-64q0 -10 7.5 -17.5t18 -7.5t18 7.5t7.5 17.5v64q16 7 26 22t10 34q0 25 -18 43t-43.5 18t-43.5 -18t-18 -43q0 -19 9.5 -34t26.5 -22z" />
    <glyph glyph-name="uniE61E" unicode="&#xe61e;" 
d="M938 521v0v1h-1q-21 18 -50 22l-88 84v77q0 11 -8 19t-19 8h-82l-160 152q-7 7 -18 7t-18 -7l-160 -152h-64q-11 0 -19 -8t-8 -19v-60l-107 -101q-28 -3 -49 -22h-1v-1q-28 -26 -28 -64v-492q0 -37 25.5 -62.5t62.5 -25.5h732q37 0 62.5 25.5t25.5 62.5v492q0 37 -28 64z
M243 472v-82l-89 97l5 4l84 80v-99zM111 448q1 0 4 2l205 -224q-77 -72 -209 -198v420zM369 252l-73 79v1v346h449v-324l-95 -102h-281zM613 732h-202l101 96zM865 491l4 -4l-70 -76v144l10 -10zM909 451q3 -3 4 -3v-421l-214 199zM878 -70h-732q-12 0 -21 8t-12 19q5 3 5 4
l44 41q44 42 106 101t100 95h283l255 -237l7 7v-3q0 -15 -10 -25t-25 -10z" />
    <glyph glyph-name="uniE61F" unicode="&#xe61f;" 
d="M866 520q0 106 -55 196q-5 9 -15.5 11.5t-20 -3t-12 -16t3.5 -19.5q47 -77 47 -169q0 -48 -32 -125.5t-82.5 -161t-99 -154.5t-93.5 -129l-3 -3l-2 3q-45 58 -93.5 129t-99 154t-82.5 161t-32 126q0 131 90.5 224t219.5 93q94 0 173 -54q8 -6 19 -4t17 11t4 19.5
t-11 16.5q-92 63 -202 63q-98 0 -181.5 -49.5t-132 -134.5t-48.5 -185q0 -52 31 -131t70.5 -148t92 -147.5t78.5 -113.5t47 -62l22 -29q8 -10 20.5 -10t20.5 10l22 29q21 27 47 62t78.5 113.5t92 147.5t70.5 148t31 131zM638 532.5q0 56.5 -39 96t-94.5 39.5t-94.5 -39.5
t-39 -96t39 -96.5t94.5 -40t94.5 40t39 96.5zM423 532.5q0 34.5 24 59.5t57.5 25t58 -25t24.5 -59.5t-24.5 -59.5t-58 -25t-57.5 25t-24 59.5z" />
    <glyph glyph-name="uniE620" unicode="&#xe620;" 
d="M512 -122q-235 0 -342 84.5t-107 260.5q0 144 97.5 277t235.5 181h232q138 -48 235.5 -181t97.5 -277q0 -176 -107 -260.5t-342 -84.5v0zM636 260q16 0 27 11t11 27t-11 27t-27 11v1h-77v1v1l91 92q17 20 -8 45q-11 12 -26.5 13.5t-25.5 -7.5l-77 -83l-84 84
q-8 8 -21.5 5.5t-24.5 -13.5t-13.5 -24.5t5.5 -21.5l86 -86q-2 -3 -3 -7h-70v0q-16 0 -27 -11t-11 -27t11 -27t27 -11v0h76v-38h-76v0q-16 0 -27 -11.5t-11 -27.5t11 -27t27 -11h76v-38h1q-1 -5 -1 -10q0 -20 14 -33.5t34 -13.5t34 13.5t14 33.5q0 4 -1 10v38h77
q16 0 27 11.5t11 27t-11 26.5t-27 12h-77v38h77v0zM693 833l-8 -10v0l-68 -85h-229l-68 85v1h-1l-8 9l2 3q-2 6 -2 7q0 20 19 27v1q95 19 172 19q37 0 80 -4.5t68 -9.5l24 -5l1 -1q18 -7 18 -27q0 -2 -1 -7z" />
    <glyph glyph-name="uniE621" unicode="&#xe621;" 
d="M512 891q-103 0 -196.5 -40.5t-161.5 -108.5t-108.5 -161.5t-40.5 -196.5t40.5 -196.5t108.5 -161.5t161.5 -108.5t196.5 -40.5t197 40.5t162 108.5t108 161.5t40 196.5t-40.5 196.5t-108.5 161.5t-161.5 108.5t-196.5 40.5zM512 -60q-122 0 -224 59t-161 161t-59 224
t59 224t161 161t224 59t224 -59t161 -161t59 -224t-59 -224t-161 -161t-224 -59zM791 637h-558q-28 0 -49 -24.5t-21 -57.5v-336q0 -37 20.5 -63t49.5 -26h558q28 0 49 24.5t21 58.5v342q0 33 -21 57.5t-49 24.5zM797 257q0 -27 -15.5 -45t-35.5 -18h-469q-20 0 -35 18
t-15 45v159h570v-159zM797 479h-570v32q0 27 15.5 45t34.5 18h469q20 0 35.5 -18t15.5 -45v-32zM290 320h-32v-63h32v63zM353 320h-31v-63h31v63zM417 320h-32v-63h32v63z" />
    <glyph glyph-name="uniE622" unicode="&#xe622;" 
d="M1018 493l1 323q0 12 -9 21q-8 8 -21 8h-954q-13 0 -21.5 -8.5t-8.5 -20.5v-323v-3v-4v-3q0 -74 52 -129v-401q0 -13 9 -21.5t21 -8.5h851q13 0 21.5 8.5t8.5 21.5v403q51 54 51 127zM64 498v288h896l-1 -294v-4v-5q0 -53 -38 -91t-91.5 -38t-91.5 38t-38 91l1 8
q1 12 -9 22q-9 10 -22 10q-12 0 -21.5 -10t-7.5 -22v-8q0 -53 -38 -91t-91.5 -38t-91.5 38t-38 91l1 8q0 12 -9 22q-8 9 -21.5 9t-22 -9t-8.5 -22v-4l1 -4q0 -53 -38 -91t-91.5 -38t-91.5 38t-38 91v9q1 3 0 6v0zM116 -18v330q38 -17 78 -17q49 0 91 23.5t68 63.5
q25 -40 67.5 -63.5t91.5 -23.5t91 23.5t68 63.5q25 -40 67.5 -63.5t91.5 -23.5q40 0 79 17v-330h-793z" />
    <glyph glyph-name="uniE623" unicode="&#xe623;" 
d="M439 315q-114 0 -194.5 81t-80.5 195t80.5 194.5t194.5 80.5t195 -80.5t81 -194.5t-81 -195t-195 -81zM439 806q-89 0 -152.5 -63t-63.5 -152.5t63.5 -152.5t152.5 -63t152.5 63.5t63.5 152.5t-63.5 152t-152.5 63zM844 -98q-12 0 -21 8.5t-9 21.5q0 32 -22 100l-5 16
q-38 118 -132.5 188.5t-215.5 70.5q-124 0 -222.5 -72.5t-135.5 -191.5q-17 -54 -17 -111q0 -13 -8.5 -21.5t-21 -8.5t-21 8.5t-8.5 21.5q0 66 19 129q43 137 157 221t258 84q141 0 251 -81.5t154 -218.5l5 -16q25 -77 25 -118q0 -12 -9 -21t-21 -9zM990 407h-257
q-13 0 -21.5 9t-8.5 21t8.5 21t21.5 9h257q12 0 21 -9t9 -21t-9 -21t-21 -9zM990 275h-197q-12 0 -20.5 8.5t-8.5 21t8.5 21t20.5 8.5h197q12 0 20.5 -8.5t9 -21t-8.5 -21t-21 -8.5zM990 143h-121q-12 0 -21 8.5t-9 21t9 21t21 8.5h121q12 0 20.5 -8.5t9 -21t-8.5 -21
t-21 -8.5z" />
    <glyph glyph-name="uniE624" unicode="&#xe624;" 
d="M1027 749q-5 -20 -8 -29t-10.5 -22.5t-16.5 -20.5q-78 -63 -157.5 -143.5t-171 -179.5t-146.5 -154q-12 -11 -12 -12q-20 -31 -45.5 -53.5t-57.5 -37.5t-58.5 -25t-66 -22t-62.5 -21q-16 -6 -35.5 15.5t-14.5 39.5q42 149 57 198q4 10 23 29q25 24 195 187t259 249
q16 16 32 33.5t38.5 44t29.5 35.5q34 38 76 40.5t79 -33.5q4 -4 17 -16t19 -18.5t15 -17t13.5 -22t6.5 -24.5q0 -3 1 -9t2 -9q1 0 -0.5 -0.5t-0.5 -1.5v0zM752 700q-223 -223 -436 -437l76 -76q83 81 441 431q-15 16 -43 44l-38 38v0zM787 763q12 -12 48 -46.5t58 -55.5
q20 28 22 30q19 20 26.5 27.5t14.5 20.5t6.5 17t-7.5 16.5t-15 20t-29 26.5q0 1 -1.5 2.5t-2.5 1.5q-28 26 -55 0q-12 -10 -34 -31.5t-31 -28.5v0zM244 108q20 8 49 20t34 14q-10 11 -27.5 32.5t-24.5 28.5q-5 -14 -15 -45t-16 -50v0zM456 -132h-293q-88 0 -136 57
q-31 37 -31 97v582q1 78 46 122.5t124 44.5q35 1 158 0.5t158 0.5q14 0 22.5 -1.5t16.5 -9t9 -20.5q3 -32 -49 -32h-154q-113 0 -154 -1q-55 0 -85 -30t-30 -85v-562q0 -44 27 -71.5t71 -28.5q266 -1 600 0q36 0 57 23.5t21 62.5q1 74 1 211v173q0 25 2 29q20 27 33 25
q3 0 7 -3.5t6.5 -7t7.5 -11t6 -9.5q1 -1 1 -17v-121v-140v-121q0 -80 -39 -118.5t-119 -38.5h-284v0z" />
    <glyph glyph-name="uniE625" unicode="&#xe625;" 
d="M1000 567q18 19 18 45.5t-18.5 45.5t-45 18.5t-45.5 -18.5l-412 -412l-382 383q-19 18 -45.5 18t-45.5 -18.5t-19 -45t19 -45.5l428 -428q19 -19 45.5 -19t45.5 19z" />
    <glyph glyph-name="uniE626" unicode="&#xe626;" 
d="M828 756q-62 64 -143.5 98t-172 34t-172 -34t-143.5 -97q-115 -114 -130 -274t77 -294q73 -107 194 -159l130 -131q18 -19 44.5 -19t44.5 19l130 132q122 53 194 158q90 133 75.5 293t-128.5 274zM838 218q-65 -95 -176 -142l-5 -2l-137 -139q-4 -4 -11 -2l-141 141l-5 2
q-110 45 -176 143q-80 116 -66.5 259.5t113.5 241.5q55 56 126.5 86t152 30t152 -30t126.5 -86q99 -99 112.5 -242.5t-65.5 -259.5zM529 230q-15 0 -25 -10.5t-10 -25t10 -25t25 -10.5t25.5 10.5t10.5 25t-10.5 25t-25.5 10.5zM624 630q-45 45 -108 45q-36 0 -62 -13
q-25 -10 -53 -35q-44 -47 -44 -109q0 -11 7.5 -18.5t18.5 -7.5t18.5 7.5t7.5 18.5q0 41 28 72q19 17 40 25q15 8 39 8q42 0 72 -30q11 -10 19 -24q15 -31 11 -62q-6 -36 -28 -58l-3 -3q-6 -8 -20 -16q-28 -14 -40 -29q-19 -24 -19 -69v-26q0 -11 7.5 -18.5t18 -7.5t18 7.5
t7.5 18.5v26q0 27 8 37q5 6 24 16q24 13 35 28q34 34 44 87q5 47 -18 93q-13 22 -28 37z" />
    <glyph glyph-name="uniE627" unicode="&#xe627;" 
d="M234 214v-2l16 -8q34 -18 77 -18v0q58 1 103 36q44 -35 102 -35q57 0 101 35q45 -35 103 -35q44 0 78 19q40 21 63 60t23 84q0 25 -8 49l-2 8l-57 141q-10 31 -37.5 49.5t-62.5 18.5h-402q-34 0 -60.5 -17.5t-36.5 -48.5l-61 -144l-1 -2q-1 -3 -1 -5q-8 -25 -8 -50
q0 -41 19 -76.5t52 -58.5zM289 528l1 2q9 26 41 26h402q34 0 43 -29l57 -141l1 -4q6 -16 5 -32q0 -29 -14.5 -53.5t-39.5 -38.5q-21 -11 -50 -11q-49 0 -79 37l-23 27l-23 -27q-31 -37 -79 -38q-48 1 -79 38l-23 27l-23 -28q-31 -37 -79 -37q-27 0 -47 10l-2 1
q-26 14 -40.5 38.5t-14.5 53.5q0 17 5 33zM332 386h390q13 0 21.5 9t8.5 21.5t-8.5 21t-21.5 8.5h-390q-13 0 -21.5 -8.5t-8.5 -21t8.5 -21.5t21.5 -9zM64 156l15 45l45 15l-45 15l-15 45l-15 -45l-45 -15l45 -15zM182 586l29 89l89 29l-89 30l-29 88l-30 -88l-88 -30
l88 -29zM765 6h-468q-13 0 -22.5 9.5t-9.5 22.5v131q0 13 -9 21.5t-21 8.5q-13 0 -21.5 -8.5t-8.5 -21.5v-131q0 -38 27 -65t65 -27h468q38 0 65 27.5t27 65.5v133q0 12 -9 21t-21 9q-13 0 -21.5 -9t-8.5 -21v-133q0 -14 -9.5 -23.5t-22.5 -9.5zM960 435l15 45l45 15l-45 15
l-15 45l-15 -45l-45 -15l45 -15z" />
    <glyph glyph-name="uniE628" unicode="&#xe628;" 
d="M171 216q7 -41 30 -80t60 -71t91.5 -51.5t119.5 -19.5q121 0 204 59.5t100 158.5q28 165 -104 276q-59 49 -88 93q-2 5 3.5 18t14.5 26l3 4q15 20 29 29t22.5 24.5t6.5 30.5q-2 28 -30 39q-10 4 -20 4q-11 0 -26 -7q-8 -3 -12 -3q-2 1 -5 4q-15 14 -29 19q-13 5 -26 5
q-23 0 -45 -20l-1 1q-13 15 -37 18t-42 -9q-6 -4 -18 -13q-6 -5 -7 -5q-3 0 -12 3q-19 6 -29 6q-17 0 -29 -10q-18 -15 -18 -38q1 -28 26 -46q21 -15 32 -31l2 -2q11 -13 17.5 -27t4.5 -19q-43 -57 -84 -93q-64 -55 -91 -126.5t-13 -146.5zM311 447q58 50 93 102
q11 15 11.5 33.5t-7.5 35t-15 27t-14 18.5q-10 15 -26 28q12 -2 22 0q15 3 32 17q12 9 13 9q0 1 3 1h5q12 -13 28 -22l8 -5l10 1q14 2 32 20q7 7 9.5 7t6.5 -2q3 -1 10 -8q21 -19 44 -19q6 1 10 1q-10 -9 -26 -29l-2 -4q-6 -8 -12 -18t-12.5 -25.5t-6 -32.5t9.5 -31
q33 -50 100 -106q107 -90 84 -224q-6 -33 -23 -62t-46 -54t-75.5 -40t-104.5 -15q-104 0 -168.5 52t-78.5 124q-3 30 -2.5 54t8.5 47.5t17 41t21.5 34t22 26t19.5 18.5zM562 270q21 -1 22 18q0 8 -6.5 16.5t-16.5 8.5h-64v16q49 49 61 60q19 18 8 30q-6 7 -15 7t-17 -6
l-59 -55q-43 44 -52 53q-7 7 -17 9.5t-18 -4.5q-13 -15 4 -32l59 -62v-17h-67q-7 0 -12.5 -9.5t-5.5 -17.5q0 -7 5 -11.5t13 -4.5h67v-47h-69q-8 0 -13.5 -6t-5.5 -13q0 -8 5.5 -15t13.5 -7h68q0 -16 1 -23q1 -21 24 -21q9 -1 15.5 5.5t6.5 14.5v24h68q8 0 13.5 6.5
t4.5 15.5q0 19 -23 19h-63l1 47zM162 491l19 58l59 20l-59 19l-19 58l-20 -58l-58 -19l58 -20zM84 336l20 58l58 19l-58 20l-20 58l-19 -58l-58 -20l58 -19zM873 444l36 108l108 36l-108 36l-36 108l-36 -108l-108 -36l108 -36z" />
    <glyph glyph-name="uniE629" unicode="&#xe629;" 
d="M459 326l-18 -18l-15 15q-28 28 -70 28t-71 -29q-4 -4 -7 -9q-11 -17 -17 -32l-201 -171q-29 -29 -29 -70t29 -70l65 -65q29 -29 70 -29t73 31l163 200q17 6 34 17q6 3 11 8q29 29 29 70q0 32 -18 58l27 28q16 16 16 38t-16 37l-199 198l81 81l28 -22l-3 -3
q-30 -30 -30 -71q0 -39 26 -65l313 -312q26 -27 65 -27q41 0 71 30l106 106q27 27 30 65q3 42 -27 71l-312 313q-27 26 -67.5 25t-68.5 -29l-57 -57l-78 64l-170 -169zM431 179q-16 -9 -27 -12l-11 -2l-173 -213q-12 -11 -25.5 -11t-23.5 10l-65 65q-10 10 -10 24q0 13 9 23
l213 180l2 10q3 9 12 23q9 10 24 10t24 -10l50 -49q10 -10 10 -24t-9 -24zM467 571l106 106q10 10 25 10q12 0 19 -7l312 -312q8 -8 7 -21q0 -13 -11 -23l-106 -106q-9 -9 -22 -10t-21 7l-312 312q-8 8 -8 19q0 14 11 25zM468 757l17 51l50 17l-50 17l-17 51l-17 -51
l-51 -17l51 -17zM154 288l33 100l100 33l-100 33l-33 99l-33 -99l-99 -33l99 -33zM659 83l50 17l-50 17l-17 51l-17 -51l-51 -17l51 -17l17 -50z" />
    <glyph glyph-name="uniE62A" unicode="&#xe62a;" 
d="M101 77h-54q-8 0 -14.5 6t-6.5 14v338q0 9 6.5 15t14.5 6h54q9 0 15 -6t6 -15v-338q0 -8 -6 -14t-15 -6v0zM101 54h-54q-18 0 -30.5 12.5t-12.5 30.5v338q0 18 12.5 30.5t30.5 12.5h54q18 0 30.5 -12.5t12.5 -30.5v-338q0 -18 -12.5 -30.5t-30.5 -12.5zM49 99h51v334h-51
v-334zM609 21q-3 0 -5 1l-363 78h-23q-9 0 -15 6.5t-6 14.5v257q0 8 5.5 13.5t13.5 6.5l58 15q6 1 11 -1l154 -71l166 -70q27 -11 38 -38q8 -20 -3 -47q-11 -26 -56 -26q-15 0 -27 6l-96 34l-25 -58l149 -44h8q17 0 44.5 9.5t45.5 31.5q32 39 30 99q0 13 11 19l169 100
q16 9 34 9q42 0 61 -37q14 -25 6 -53t-34 -42l-341 -210q-5 -3 -10 -3zM609 -1q-4 0 -10 1l-361 78h-20q-18 0 -30.5 12.5t-12.5 30.5v257q0 16 10.5 28t25.5 14l57 15h3q12 2 23 -3l154 -71l166 -69q35 -15 49 -50q12 -29 -3 -65q-16 -39 -77 -39q-18 0 -34 7l-76 26
l-6 -15l123 -36h3q13 0 36 8t37 25q27 32 25 84q0 26 23 39l168 100q21 12 45 12q25 0 47 -13t34 -35q18 -34 8 -71q-11 -36 -44 -54l-341 -210q-10 -6 -22 -6zM220 123h21q3 0 5 -1l362 -78l341 209h1q17 10 23 29t-4 36q-13 25 -42 25q-12 0 -23 -5l-168 -101
q1 -68 -35 -112q-22 -26 -54 -38t-54 -12l-10 1q-1 0 -4 1l-149 44q-9 3 -13.5 12t-0.5 18l25 57q3 8 11 11.5t17 1.5l95 -34v-1h1q9 -3 19 -3q31 0 35 11q8 19 3 31q-8 19 -26 26l-166 70l-154 70l-55 -14l-1 -1v-253zM648.5 605q-9.5 0 -15.5 6l-120 120q-7 6 -7 15.5
t6.5 16t16 6.5t15.5 -7l104 -104l104 104q6 6 15.5 6t16 -6.5t6.5 -15.5t-7 -16l-119 -119q-6 -6 -15.5 -6zM648 357q-9 0 -15.5 6.5t-6.5 15.5v248q0 9 6.5 15.5t15.5 6.5t15.5 -6.5t6.5 -15.5v-248q0 -9 -6.5 -15.5t-15.5 -6.5zM781 547h-266q-9 0 -15.5 6.5t-6.5 15.5
t6.5 15.5t15.5 6.5h266q9 0 15.5 -6.5t6.5 -15.5t-6.5 -15.5t-15.5 -6.5zM781 462h-266q-9 0 -15.5 6.5t-6.5 15.5t6.5 15.5t15.5 6.5h266q9 0 15.5 -6.5t6.5 -15.5t-6.5 -15.5t-15.5 -6.5z" />
    <glyph glyph-name="uniE62B" unicode="&#xe62b;" 
d="M863 -125h-702q-59 0 -95 46q-36 47 -22 104q31 116 113 205.5t196 128.5q-62 41 -97 105t-35 139q0 120 85.5 205t205.5 85q29 0 58 -5q86 -17 148.5 -80.5t79.5 -149.5q16 -88 -18.5 -169t-108.5 -130q114 -39 196 -128.5t113 -205.5q14 -57 -22 -103.5t-95 -46.5z
M512 836q-97 0 -165.5 -68.5t-68.5 -164.5q0 -66 34 -122t92 -86q27 -13 24 -43q-2 -14 -11 -24.5t-22 -14.5q-108 -31 -187.5 -112t-108.5 -191q-7 -29 12 -54q19 -24 50 -24h702q31 0 50 24t12 54q-29 110 -108.5 191t-187.5 112q-29 8 -33 39q-3 29 24 43
q69 36 102.5 106t19.5 147q-13 69 -63.5 120t-119.5 64q-25 4 -47 4z" />
    <glyph glyph-name="uniE62C" unicode="&#xe62c;" 
d="M862 -123h-700q-58 0 -95 46q-35 46 -21 103q30 116 112 205t195 129q-61 39 -96 103.5t-35 138.5q0 119 85 204t205 85q29 0 58 -5q85 -17 147.5 -80t78.5 -149q17 -88 -17.5 -168.5t-108.5 -128.5q114 -40 196 -128.5t112 -205.5q14 -56 -22 -102q-35 -47 -94 -47z" />
    <glyph glyph-name="uniE62D" unicode="&#xe62d;" 
d="M403 420h218v-72h-218v72zM211 388l-54 -48l309 -314l546 554l-57 54l-492 -497zM789 -76h-732v645h777v137q0 18 -13.5 31.5t-31.5 13.5h-184v46q0 19 -13.5 32.5t-32.5 13.5h-90q0 19 -13.5 32.5t-32.5 13.5t-32.5 -13.5t-13.5 -32.5h-90q-19 0 -32.5 -13.5
t-13.5 -32.5v-46h-184q-19 0 -32 -13.5t-13 -31.5v-782q0 -18 13 -31.5t32 -13.5h732q19 0 32.5 13.5t13.5 31.5v261h-46v-261v0zM285 797h275v-91h-275v91zM57 702h184q1 -18 14 -30.5t32 -12.5h272q18 0 31.5 12.5t14.5 30.5h184v-91h-733v91h1z" />
    <glyph glyph-name="uniE62E" unicode="&#xe62e;" 
d="M512 -125q-9 3 -24.5 9t-60.5 27t-86 44.5t-91 60.5t-85.5 76.5t-60 92t-24.5 107.5v447l432 154l432 -154v-447q0 -43 -14.5 -84.5t-39.5 -75.5t-57.5 -66t-68.5 -57.5t-72 -47t-68 -37.5t-57 -27t-40 -17l-15 -5v0zM692 543l-216 -216l-118 118l-72 -72l190 -190
l288 288z" />
    <glyph glyph-name="uniE62F" unicode="&#xe62f;" 
d="M691 489h-354l175 -487zM281 546l196 272q4 4 1 9.5t-9 5.5h-226q-10 0 -17 -7l-219 -260q-5 -6 -1.5 -13t10.5 -7h265zM352 546h323l-163 222zM470 -52l-194 541h-261q-7 0 -10 -6.5t2 -12.5l447 -531q5 -6 12 -2t4 11zM752 489l-199 -542q-3 -7 4 -11t12 2l448 532
q5 6 2 12.5t-11 6.5h-256zM746 546h262q7 0 10.5 7t-1.5 12l-219 260q-7 8 -17 8h-227q-6 0 -8.5 -5.5t0.5 -10.5z" />
    <glyph glyph-name="uniE630" unicode="&#xe630;" 
d="M284 504h459v-37h-459v37zM306 464l-32 20l202 314h-223l-210 -323l-31 21l211 326q12 14 30 14h240q17 0 25 -15.5t-2 -29.5zM503 -67h-9l-7 8l-476 513q-13 16 -5 33t28 17h285l221 -549l-15 -7q-4 -2 -4 -3l-4 -11zM51 467l428 -461l-185 461h-243zM516 -68
q-15 0 -23 12t-3 26l241 534h259q20 0 28 -17.5t-5 -31.5l-476 -513q-8 -10 -21 -10zM755 467l-206 -457l424 457h-218zM722 464l-215 327q-10 14 -2 29.5t26 15.5h240q19 0 31 -15l214 -325l-32 -21l-213 324l-224 -1l206 -313z" />
    <glyph glyph-name="uniE631" unicode="&#xe631;" 
d="M935 -124h-847q-35 0 -60 24.5t-25 59.5v752q0 35 25 60t60 25h138v64q0 13 9 22t22.5 9t22.5 -9t9 -22v-64h191v64q0 13 9.5 22t22.5 9t22.5 -9t9.5 -22v-64h191v64q0 13 9 22t22.5 9t22.5 -9t9 -22v-64h138q35 0 60 -25t25 -60v-752q-1 -35 -25.5 -59.5t-60.5 -24.5z
M957 712q0 9 -6.5 15t-15.5 6h-137v-63q0 -13 -9.5 -22.5t-22.5 -9.5t-22.5 9.5t-9.5 22.5v63h-190v-63q0 -13 -9.5 -22.5t-22.5 -9.5t-22.5 9.5t-9.5 22.5v63h-191v-63q0 -13 -9 -22.5t-22.5 -9.5t-22.5 9.5t-9 22.5v63h-138q-8 0 -14.5 -6t-6.5 -15v-752q0 -8 6 -14.5
t15 -6.5h848q8 0 14.5 6.5t6.5 14.5v752zM671 193h127v-95h-127v95zM671 352h127v-95h-127v95zM671 511h127v-95h-127v95zM448 193h127v-95h-127v95zM448 352h127v-95h-127v95zM448 511h127v-95h-127v95zM226 193h127v-95h-127v95zM226 352h127v-95h-127v95zM226 511h127
v-95h-127v95z" />
    <glyph glyph-name="uniE632" unicode="&#xe632;" 
d="M947 403h-36q-3 0 -5 1q-43 121 -123 156q-10 5 -18 7q25 69 33 87q7 7 7 18q0 18 -17 24q-32 15 -68 15q-83 0 -126 -70q-59 12 -120 12q-194 0 -310 -109q-12 -12 -39 -47q-2 -2 -2 -3l-28 -51q-10 11 -14.5 17.5t-9 19.5t-4.5 28q0 25 12 40t28 15q11 0 19 8t8 19
t-8 18.5t-19 7.5q-37 0 -65 -29.5t-28 -78.5q0 -25 8 -46.5t15 -31t19 -23.5q13 -14 13 -17v-2v-1q-16 -52 -16 -117q0 -118 124 -218l2 -2q3 -3 4 -3q0 -1 -1 -3q-11 -35 -19 -52h-1v-1q-9 -25 2 -49.5t36 -34.5l72 -27q11 -5 23 -5q20 0 37 12t24 30q10 25 18 47v1
q6 -1 9 -1q45 -10 90 -10q40 0 85 5q10 1 17 1q3 -9 16 -43q7 -19 24 -30.5t37 -11.5q12 0 23 5l72 28q25 9 36 34t2 50l-12 30v1l1 1h1q82 44 124 132q3 8 5 9.5t7 1.5h37q26 0 44 18.5t18 44.5v110q0 26 -18.5 44.5t-44.5 18.5zM748 261q-25 0 -42.5 17.5t-17.5 43
t17.5 43t42.5 17.5t42.5 -17.5t17.5 -43t-17.5 -43t-42.5 -17.5zM292 659q34 17 97 26q33 5 60 5.5t37 -0.5l11 -2q19 33 19 70q0 56 -39 95.5t-95 39.5t-95 -39.5t-39 -95.5q0 -59 44 -99z" />
    <glyph glyph-name="uniE633" unicode="&#xe633;" 
d="M499 549q20 0 32 12t12 32t-12 31.5t-32 11.5t-36 -12t-16 -31t15.5 -31.5t36.5 -12.5zM255 636q-20 0 -36 -12t-16 -31t16 -31.5t36 -12.5t32 12t12 32t-12 31.5t-32 11.5zM1020 271q0 102 -83.5 180t-201.5 87q1 2 0 5q-24 110 -128.5 184t-238.5 74q-98 0 -182 -42
t-133 -114t-49 -156q0 -141 136 -241l-31 -94q-3 -11 5 -17q5 -4 10 -4q4 0 7 1l117 59l15 -3q68 -14 105 -14q14 0 34 2q6 0 11 6q32 -81 113 -131.5t182 -50.5q37 0 102 16l90 -49q3 -2 8 -2q6 0 10 4q8 6 6 17l-23 76q57 46 88 99t31 108v0zM399 209q-18 -1 -31 -1
q-34 0 -99 13l-20 4q-5 1 -10 -1l-87 -44l22 68q4 11 -6 18q-132 93 -132 222q0 76 44.5 140.5t121 102.5t166.5 38q122 0 217.5 -66t117.5 -164q-128 -2 -217.5 -80.5t-89.5 -188.5q0 -29 8 -62q-1 1 -5 1v0zM873 83q-9 -7 -6 -17l15 -50l-62 33q-3 2 -7 2h-4
q-67 -17 -101 -17q-116 0 -198 69.5t-82 167.5t82 167.5t198 69.5q114 0 197 -70.5t83 -166.5q0 -49 -30 -97.5t-85 -90.5v0zM612 384q-13 0 -24 -11t-11 -24t11 -24t24 -11q19 0 31.5 10.5t12.5 24.5t-12.5 24.5t-31.5 10.5zM804 384q-13 0 -24 -11t-11 -24t11 -24t24 -11
q19 0 31 10.5t12 24.5t-12 24.5t-31 10.5z" />
    <glyph glyph-name="uniE634" unicode="&#xe634;" 
d="M512.5 432q-10.5 0 -18.5 7l-136 137q-8 7 -8 17.5t7.5 18t18 7.5t17.5 -7l119 -119l118 118q8 7 18.5 7t18 -7.5t7.5 -18t-8 -17.5l-136 -136q-7 -7 -17.5 -7zM511.5 149q-10.5 0 -17.5 7.5t-7 17.5v283q0 10 7 17.5t17.5 7.5t18 -7.5t7.5 -17.5v-283q0 -10 -7.5 -17.5
t-18 -7.5zM664 366h-304q-10 0 -17.5 7.5t-7.5 18t7.5 17.5t17.5 7h304q10 0 17.5 -7t7.5 -17.5t-7.5 -18t-17.5 -7.5zM664 269h-304q-10 0 -17.5 7.5t-7.5 18t7.5 17.5t17.5 7h304q10 0 17.5 -7t7.5 -17.5t-7.5 -18t-17.5 -7.5zM512 -121h-6q-6 2 -23.5 7.5t-56.5 23
t-77.5 40.5t-82.5 63t-77.5 87t-55.5 115t-22 144v387q0 11 7.5 18.5t17.5 7.5q68 0 130 11.5t100.5 26.5t71 33.5t42.5 26.5t14 12q8 7 18 7t18 -7q4 -4 14 -12t42.5 -26.5t71 -33.5t100.5 -26.5t129 -11.5q11 0 18.5 -7.5t7.5 -18.5v-387q0 -77 -22.5 -144.5t-55 -114.5
t-77.5 -87t-82.5 -63t-78 -41t-56 -23t-23.5 -7h-6zM162 721v-362q0 -64 17 -121.5t43 -98.5t62.5 -76.5t68.5 -57t68.5 -39t55.5 -24.5t35 -12q16 5 35 12t55.5 24.5t68.5 39t68.5 57t62.5 76.5t43 98.5t17 121.5v362q-68 2 -129.5 14.5t-104.5 31.5t-69.5 34t-46.5 30
q-20 -15 -46.5 -30t-69.5 -34t-104.5 -31.5t-129.5 -14.5z" />
    <glyph glyph-name="uniE635" unicode="&#xe635;" 
d="M11 410q-12 -12 -5.5 -28t23.5 -16h966q10 0 18 7.5t8 18.5t-8 18.5t-18 7.5h-904l429 429q8 8 8 18.5t-7.5 18t-18.5 7.5t-18 -7zM192 250q-8 7 -18.5 7t-18 -7.5t-7.5 -18t7 -18.5l329 -329q7 -7 18 -7t18.5 7.5t7.5 18t-8 18.5z" />
    <glyph glyph-name="uniE636" unicode="&#xe636;" 
d="M809 515q-16 0 -27 11l-270 270l-270 -270q-11 -11 -27.5 -11t-27.5 11.5t-11 27.5t11 28l297 297q12 12 28 12t28 -12l297 -297q12 -12 12 -28t-12 -28q-12 -11 -28 -11zM512 -122q-16 0 -27.5 11.5t-11.5 27.5v763q0 17 11.5 28.5t27.5 11.5t27.5 -11.5t11.5 -28.5
v-763q0 -16 -11.5 -27.5t-27.5 -11.5z" />
    <glyph glyph-name="uniE637" unicode="&#xe637;" 
d="M1005 342q-12 23 -34.5 36t-48.5 13q-25 0 -46 -11l-221 -119q-16 24 -42 35l-164 69l-153 70q-12 5 -24 4l-119 -14v10q0 19 -13.5 32.5t-32.5 13.5h-54q-19 0 -32.5 -13.5t-13.5 -32.5v-335q0 -19 13.5 -32.5t32.5 -13.5h54q15 0 27 9.5t16 24.5h89l357 -88q6 -1 10 -1
q13 0 24 7l337 207q35 18 46 56t-8 73zM101 105h-43v324h43v-324zM964 284q-6 -18 -23 -27l-336 -206l-357 87l-95 1v234l122 15l153 -71l165 -69q17 -6 24 -23q6 -17 -1 -34q-6 -16 -23 -23t-34 0l-98 41q-10 4 -20 0t-14 -14t0 -19.5t14 -14.5l98 -41q18 -7 37 -7
q29 0 53 16t35 42q8 20 7 41l230 123q15 8 33 3t26 -21q9 -16 4 -33zM513 509q-10 0 -17.5 -7.5t-7.5 -18.5t7.5 -18.5t17.5 -7.5h107v-78q0 -11 7.5 -18.5t18 -7.5t18 7.5t7.5 18.5v78h106q11 0 18.5 7.5t7.5 18.5t-7.5 18.5t-18.5 7.5h-106v33h106q11 0 18.5 7.5t7.5 18
t-7.5 18t-18.5 7.5h-106v21l111 111q8 7 8 18t-7.5 18.5t-18.5 7.5t-18 -8l-100 -100l-101 101q-8 7 -18.5 7t-18 -7.5t-7.5 -18t8 -18.5l111 -111v-21h-107q-10 0 -17.5 -7.5t-7.5 -18t7.5 -18t17.5 -7.5h107v-33h-107z" />
    <glyph glyph-name="uniE638" unicode="&#xe638;" 
d="M543 771q23 -13 24 -50q1 -55 1 -139v-523q0 -27 -6 -40q-13 -31 -43 -18q-29 12 -63 39q-176 145 -180 148q-24 20 -56 20q-39 0 -179 1q-6 0 -13 2q-16 2 -19 18q-1 7 -1 15v279q0 6 1 15q3 18 21 20q12 1 24 1q58 0 162 1q33 0 59 21q150 124 195 162q24 20 58 27
q1 0 3 1h12zM882 720q24 -1 34 -20q60 -109 76 -151q12 -34 21 -87q10 -58 12 -70q1 -9 -2 -33q-9 -89 -44 -171q-24 -58 -62 -111q-9 -13 -26.5 -16.5t-29.5 4.5q-12 7 -8 20q4 10 9 18q36 58 57 111q21 55 28 116q6 56 1 111q-10 84 -46 158q-4 7 -42 75q-1 2 -3 4
q-9 15 -4.5 26t22.5 15q1 0 4 1h3zM868 388q0 -87 -43 -181q-16 -35 -57 -20q-19 7 -10 30q3 6 7.5 17t6.5 16q27 65 28 133t-25 136q-3 7 -8.5 20.5t-6.5 16.5q-2 5 -3 11q-2 9 5 15q9 9 24 10t24 -6q8 -6 12 -15q34 -66 42 -135q1 -6 4 -48zM669 269q-18 5 -19 6
q-17 7 -12 27q1 6 4.5 20.5t4.5 21.5q10 55 -5 110q-3 12 -4 19q-3 20 16 28q28 10 43 -8q6 -8 9 -19q10 -49 15 -84q1 -5 -2 -25q-8 -39 -13 -64q-6 -30 -37 -32z" />
    <glyph glyph-name="uniE639" unicode="&#xe639;" 
d="M845 184l41 13q12 4 18 14.5t4 23.5l-22 103l71 78q8 10 8 22.5t-8 21.5l-71 78l22 104q3 12 -3.5 22.5t-18.5 14.5l-100 32l-33 101q-4 12 -14.5 18.5t-22.5 3.5l-104 -22l-78 71q-10 8 -22.5 8t-21.5 -8l-78 -71l-104 22q-12 3 -22.5 -3.5t-14.5 -18.5l-32 -101
l-101 -32q-12 -4 -18 -14.5t-4 -23.5l22 -103l-71 -78q-8 -10 -8 -22.5t8 -21.5l71 -78l-22 -103q-2 -13 4 -23.5t18 -14.5l42 -13l-144 -144q-15 -15 -7.5 -34t28.5 -21l146 -10l56 -83q8 -13 24 -15h1h2q14 0 23 10l137 146l44 -40q10 -8 22 -8t22 8l44 40l137 -146
q9 -10 24 -10h2q16 1 24 15l56 83l146 10q21 2 28 21t-7 34zM290 -39l-42 64q-9 13 -25 14l-91 6l110 109l29 -90q4 -12 14.5 -18t22.5 -4l72 16zM512 61l-34 31q-3 9 -8 14q-6 5 -16 7l-11 10q-9 9 -22 9q-3 0 -7 -1l-91 -20l-28 89q-3 8 -10 14q-1 13 -9 20q-10 10 -23 10
t-22 -9l-46 14l20 91q3 17 -8 29l-62 69l62 69q11 12 8 29l-20 90l89 29q16 5 21 21l28 89l91 -20q17 -3 29 8l69 62l69 -62q12 -11 29 -8l90 20l29 -89q5 -16 21 -21l88 -29l-19 -90q-3 -17 7 -29l63 -69l-63 -69q-11 -12 -7 -29l19 -91l-45 -14q-10 9 -23 9t-22 -10
q-8 -7 -9 -20q-7 -6 -10 -14l-29 -89l-91 20q-16 3 -28 -8l-12 -10q-8 -2 -15 -7q-5 -5 -8 -14zM801 39q-16 -1 -25 -14l-42 -64l-90 97l71 -16q13 -3 23.5 3.5t14.5 18.5l29 90l109 -109zM434 358h156q10 0 17.5 7.5t7.5 18.5t-7.5 18.5t-17.5 7.5h-156q-10 0 -17.5 -7.5
t-7.5 -18.5t7.5 -18.5t17.5 -7.5zM667 384q0 11 -7.5 18.5t-18.5 7.5h-258q-11 0 -18.5 -7.5t-7.5 -18.5t7.5 -18.5t18.5 -7.5h258q11 0 18.5 7.5t7.5 18.5z" />
    <glyph glyph-name="uniE63A" unicode="&#xe63a;" 
d="M864 424q2 41 -4 74q-7 36 -31 56q-2 83 -30.5 149.5t-74 106t-99.5 60.5t-112 21t-112.5 -22t-99.5 -63t-73.5 -106.5t-32.5 -145.5q-21 -20 -30 -54q-6 -21 -2 -73q-41 -33 -72.5 -105.5t-31.5 -109.5q0 -111 57 -111q26 0 58 39q12 -23 34 -58q-59 -41 -59 -95
q0 -108 174 -108q117 0 188 59h3h4q37 -32 80.5 -46.5t103.5 -14.5q53 0 89.5 11t53 29t23 34t6.5 34q0 55 -56 99q11 20 30 58q37 -44 66 -44q51 0 51 98q0 39 -11.5 77.5t-29.5 69t-32 49t-28 32.5zM910 153q-18 13 -45 52q-7 12 -21 12q-11 0 -16.5 -6t-15.5 -26
q-41 -80 -46 -88q-10 -7 -10 -19q-1 -15 14 -24q52 -32 52 -69q0 -56 -120 -56q-58 0 -93.5 13.5t-64.5 40.5q-8 7 -18 7h-5q-5 -1 -20 -1q-11 0 -19 -8q-2 -2 -6.5 -5.5t-19 -12.5t-31.5 -15.5t-44.5 -11.5t-58.5 -5q-34 0 -58.5 4.5t-36.5 10t-18 14.5t-7 14t-1 13
q0 18 18 36t35 26q8 3 13 11q7 14 -4 30q-55 86 -56 104q0 11 -8 18.5t-18 7.5q-15 0 -24 -15q-23 -35 -39 -50q-8 18 -8 57q0 30 30.5 96t61.5 83q9 5 12 14q2 6 1 18q-4 50 -1 62q8 26 21 35q10 8 11 20q2 74 26 133t62.5 94t84.5 53.5t94 18.5q49 0 95 -18.5t84.5 -53.5
t61.5 -93.5t23 -132.5q-1 -17 15 -25q13 -6 17 -28q6 -33 3 -71v-1q-1 -12 8 -21l11 -11q5 -5 22 -27.5t28.5 -43.5t22 -53.5t10.5 -63.5q-1 -28 -4 -43z" />
    <glyph glyph-name="uniE63B" unicode="&#xe63b;" 
d="M305 62h-46q-9 0 -16 -6.5t-7 -16t7 -16.5t16 -7h46q10 0 16.5 7t6.5 16.5t-6.5 16t-16.5 6.5zM351 154h-92q-9 0 -16 -6.5t-7 -16t7 -16.5t16 -7h92q10 0 16.5 7t6.5 16.5t-6.5 16t-16.5 6.5zM834 890h-460q-38 0 -65 -27t-27 -65v-23q0 -10 7 -16.5t16.5 -6.5t16 6.5
t6.5 16.5v23q0 19 13.5 32.5t32.5 13.5h460q19 0 32.5 -13.5t13.5 -32.5v-644q0 -19 -13.5 -32.5t-32.5 -13.5h-23q-10 0 -16.5 -6.5t-6.5 -16t6.5 -16.5t16.5 -7h23q38 0 65 27t27 65v644q0 38 -27 65t-65 27zM650 706h-460q-38 0 -65 -27t-27 -65v-644q0 -38 27 -65
t65 -27h460q38 0 65 27t27 65v644q0 38 -27 65t-65 27zM696 -30q0 -19 -13.5 -32t-32.5 -13h-460q-19 0 -32.5 13t-13.5 32v577q42 -32 91.5 -48t119.5 -21q7 -21 24.5 -34.5t40.5 -13.5t41 13.5t25 34.5q132 9 210 69v-577zM397 498.5q0 9.5 7 16.5t16.5 7t16 -6.5
t6.5 -16.5t-6.5 -16.5t-16 -6.5t-16.5 6.5t-7 16zM696 605q-65 -70 -212 -81q-8 20 -25 32t-38.5 12t-39 -12t-25.5 -32q-146 11 -212 81v9q0 19 13.5 32.5t32.5 13.5h460q19 0 32.5 -13.5t13.5 -32.5v-9z" />
    <glyph glyph-name="uniE63C" unicode="&#xe63c;" 
d="M511 891q-126 0 -236 -59t-179 -161t-83 -226q-2 -18 2 -18q2 0 6 7q13 25 37 39.5t52 14.5q32 0 57.5 -17.5t36.5 -44.5q3 -9 6.5 -9t7.5 9q11 27 36 44.5t56.5 17.5t57 -17.5t36.5 -44.5q4 -9 7.5 -9t6.5 9q18 45 65 58v-417q0 -55 -39 -94.5t-94.5 -39.5t-94.5 39.5
t-39 94.5q0 12 -8.5 20.5t-20 8.5t-20 -8.5t-8.5 -20.5q0 -78 56 -134t134.5 -56t134.5 56t56 134v417q47 -14 65 -58q3 -9 7 -9t7 9q11 27 36.5 44.5t56.5 17.5t56.5 -17.5t37.5 -44.5q3 -9 6.5 -9t6.5 9q12 27 37 44.5t57 17.5q27 0 50.5 -13.5t36.5 -36.5q9 -16 10.5 -16
t0.5 7q-10 127 -78.5 233t-180 167.5t-241.5 61.5zM913 544q-57 0 -101 -35q-43 35 -100 35t-100 -35q-44 35 -101 35t-100 -35q-43 35 -100 35t-100 -35q-44 35 -101 35q-8 0 -17 -1q48 130 162.5 211t255.5 81t255.5 -81.5t162.5 -210.5q-8 1 -16 1z" />
    <glyph glyph-name="uniE63D" unicode="&#xe63d;" 
d="M1010 548q-1 5 -3 10l-81 201q-13 39 -47.5 62.5t-79.5 23.5h-572q-44 0 -77 -22.5t-46 -59.5l-88 -209q-2 -4 -1 -5q-11 -33 -11 -68q0 -60 30.5 -111t83.5 -80q1 0 1 -1q44 -23 102 -23q85 0 146 57q61 -56 146 -57q83 1 144 57q62 -57 146 -57q59 1 104 25
q52 29 82.5 80t30.5 111q0 33 -10 65v1zM882 336q-33 -18 -79 -18q-77 0 -126 59q-8 8 -20.5 8t-19.5 -8q-49 -59 -124 -59q-77 0 -126 58q-8 10 -20 10t-20 -10q-49 -58 -126 -59q-44 0 -76 18h-2q-40 22 -63.5 61t-23.5 85q0 26 8 55l89 209q7 22 27 35t47 13h572
q28 0 49 -14t29 -38l82 -204q1 -2 1 -5q9 -24 8 -50q0 -46 -23 -85t-63 -61zM784 602h-556q-11 0 -18.5 -7.5t-7.5 -18t7.5 -18.5t18.5 -8h556q11 0 18.5 8t7.5 18.5t-7.5 18t-18.5 7.5zM933.5 254q-10.5 0 -18 -7.5t-7.5 -18.5v-189q0 -26 -18.5 -45t-44.5 -19h-666
q-26 0 -44.5 18.5t-18.5 44.5l-1 186q0 11 -7.5 18.5t-18.5 7.5q-10 0 -17.5 -7.5t-7.5 -18.5v-186q0 -47 33.5 -81t81.5 -34l666 1q47 0 81 33.5t34 81.5l-1 190q0 10 -7.5 17.5t-18 7.5z" />
    <glyph glyph-name="uniE63E" unicode="&#xe63e;" 
d="M211 583h278q9 0 16 5.5t7 13.5t-7 14t-16 6h-278q-9 0 -16 -6t-7 -14t7 -13.5t16 -5.5zM974 821h-924q-19 0 -32.5 -11.5t-13.5 -27.5v-636l231 -199h739q19 0 32.5 11.5t13.5 28.5v794q0 17 -13.5 28.5t-32.5 11.5zM234 7l-161 139h162v-139h-1v0zM974 -13h-693v179
q0 8 -7 13.5t-16 5.5h-208v596h924v-794v0zM211 464h601q9 0 16 5.5t7 13.5t-6.5 14t-16.5 6h-601q-9 0 -16 -6t-7 -14t7 -13.5t16 -5.5zM211 344h462q10 0 16.5 6t6.5 14t-6.5 14t-16.5 6h-462q-9 0 -16 -6t-7 -14t7 -14t16 -6z" />
    <glyph glyph-name="uniE63F" unicode="&#xe63f;" 
d="M790 611q0 115 -81.5 196t-196.5 81t-196.5 -81t-81.5 -196v-454q0 -115 81.5 -196t196.5 -81t196 81t81 196v454h1zM512 -69q-93 0 -159.5 66.5t-66.5 159.5v454q0 93 66.5 159.5t159.5 66.5t159.5 -66.5t66.5 -159.5v-454q0 -93 -66.5 -159.5t-159.5 -66.5zM512 462
q11 0 18.5 7.5t7.5 17.5v179q0 11 -7.5 18.5t-18.5 7.5t-18.5 -7.5t-7.5 -18.5v-179q0 -10 7.5 -17.5t18.5 -7.5z" />
    <glyph glyph-name="uniE640" unicode="&#xe640;" 
d="M364 885h-251q-45 0 -77 -32t-32 -77v-251q0 -45 32 -77t77 -32h251q45 0 77 32t32 77v251q0 45 -32 77t-77 32zM414 525q0 -20 -14.5 -35t-35.5 -15h-251q-20 0 -34.5 15t-14.5 35v251q0 21 14.5 35.5t34.5 14.5h251q21 0 35.5 -14.5t14.5 -35.5v-251zM911 885h-251
q-46 0 -78 -32t-32 -77v-251q0 -45 32.5 -77t77.5 -32h251q45 0 77 32t32 77v251q0 45 -32 77t-77 32zM960 525q0 -20 -14.5 -35t-34.5 -15h-251q-21 0 -35.5 15t-14.5 35v251q0 21 14.5 35.5t35.5 14.5h251q20 0 34.5 -14.5t14.5 -35.5v-251zM364 352h-251q-45 0 -77 -32
t-32 -77v-251q0 -45 32 -77t77 -32h251q45 0 77 32t32 77v251q0 45 -32 77t-77 32zM414 -8q0 -21 -14.5 -35.5t-35.5 -14.5h-251q-20 0 -34.5 14.5t-14.5 35.5v251q0 20 14.5 34.5t34.5 14.5h251q21 0 35.5 -14.5t14.5 -34.5v-251zM911 352h-251q-46 0 -78 -32t-32 -77v-251
q0 -45 32.5 -77t77.5 -32h251q45 0 77 32t32 77v251q0 45 -32 77t-77 32zM960 -8q0 -21 -14.5 -35.5t-34.5 -14.5h-251q-21 0 -35.5 14.5t-14.5 35.5v251q0 20 14.5 34.5t35.5 14.5h251q20 0 34.5 -14.5t14.5 -34.5v-251z" />
    <glyph glyph-name="uniE641" unicode="&#xe641;" 
d="M626 764q-8 8 -18.5 8t-18 -7.5t-7.5 -18.5t8 -18l210 -208h-766q-11 0 -18.5 -7.5t-7.5 -18.5t7.5 -18.5t18.5 -7.5h829q17 0 23.5 16t-5.5 29zM990 300h-829q-17 0 -23.5 -16t5.5 -29l255 -251q8 -8 18.5 -8t18 8t7.5 18.5t-8 17.5l-210 208h766q11 0 18.5 7.5
t7.5 18.5t-7.5 18.5t-18.5 7.5z" />
    <glyph glyph-name="uniE642" unicode="&#xe642;" 
d="M57 795v-824q0 -18 12 -30t29 -12h825q17 0 29 12t12 30v824q0 17 -12 29.5t-29 12.5h-825q-17 0 -29 -12.5t-12 -29.5v0zM284 185l-73 73q-6 6 -15 6t-14.5 -6t-5.5 -14.5t6 -14.5l72 -73l-72 -73q-6 -6 -6.5 -14.5t5.5 -14.5t15 -6t15 6l73 73l72 -73q6 -6 15 -6t15 6
t6 14.5t-7 14.5l-72 73l72 73q6 6 6.5 14.5t-5.5 14.5t-15 6t-15 -6zM263 630h-103q-9 0 -15 -6t-6 -14.5t6 -14.5t15 -6h103v-103q0 -8 6 -14.5t14.5 -6.5t14.5 6.5t6 14.5v103h103q9 0 15 6t6 14.5t-6 14.5t-15 6h-103v103q0 9 -6 15t-14.5 6t-14.5 -6t-6 -15v-103z
M15 795q0 34 24.5 58.5t58.5 24.5h825q34 0 58 -24.5t24 -58.5v-824q0 -35 -24 -59t-58 -24h-825q-34 0 -58.5 24t-24.5 59v824zM552 610q0 8 6 14t14 6h248q8 0 14 -6t6 -14.5t-6 -14.5t-14 -6h-248q-8 0 -14 6t-6 15zM552 238q0 9 6 15t14 6h248q8 0 14 -6t6 -14.5
t-6 -14.5t-14 -6h-248q-8 0 -14 6t-6 14zM552 74q0 8 6 14t14 6h248q8 0 14 -6t6 -14.5t-6 -14.5t-14 -6h-248q-8 0 -14 6t-6 15zM552 74z" />
  </font>
</defs>
</svg>
